<?xml version="1.0" encoding="UTF-8" standalone="no"?>
<!DOCTYPE svg PUBLIC "-//W3C//DTD SVG 1.1//EN" "http://www.w3.org/Graphics/SVG/1.1/DTD/svg11.dtd">
<svg width="100%" height="100%" viewBox="0 0 257 231" version="1.1" xmlns="http://www.w3.org/2000/svg" xmlns:xlink="http://www.w3.org/1999/xlink" xml:space="preserve" xmlns:serif="http://www.serif.com/" style="fill-rule:evenodd;clip-rule:evenodd;stroke-linejoin:round;stroke-miterlimit:2;">
    <g transform="matrix(1,0,0,1,0,-224)">
        <g id="chickenDinner" transform="matrix(1,0,0,0.934716,-0.0386818,21.517)">
            <rect x="0.039" y="216.659" width="256.604" height="246.064" style="fill:none;"/>
            <g transform="matrix(2.65882,0,0,2.84452,-6.67558,191.547)">
                <path d="M85.73,73.582C86.043,70.555 85.058,67.539 83.015,65.285C78.711,60.246 62.339,53.558 47.71,50.683C47.503,50.558 47.296,50.429 47.085,50.32C44.429,48.984 42.226,46.898 40.753,44.316L38.956,41.039C38.765,40.687 38.335,40.539 37.964,40.695L37.609,40.847L35.156,35.109L35.159,35.109C35.851,34.644 36.355,33.949 36.574,33.14C36.859,32.109 36.652,31.003 36.015,30.14C35.238,29.082 33.925,28.554 32.632,28.785C31.316,29.015 30.245,29.976 29.874,31.257C28.687,30.64 27.253,30.749 26.179,31.542C25.117,32.32 24.589,33.632 24.82,34.925C24.984,35.867 25.523,36.695 26.312,37.226C27.101,37.757 28.074,37.945 29.003,37.738L31.456,43.476L31.101,43.628L31.105,43.628C30.734,43.789 30.542,44.199 30.667,44.582L31.652,47.687C31.562,47.593 31.464,47.503 31.374,47.406L28.484,44.218C28.214,43.921 27.761,43.875 27.441,44.117L26.988,44.453L22.574,38.503C23.249,37.808 23.64,36.89 23.671,35.925C23.71,34.726 23.199,33.578 22.285,32.804C21.167,31.851 19.601,31.621 18.253,32.207C16.835,32.82 15.906,34.214 15.89,35.765C14.406,35.328 12.804,35.812 11.804,36.996C10.851,38.113 10.621,39.675 11.206,41.023C11.679,42.125 12.632,42.949 13.788,43.257C14.722,43.507 15.718,43.398 16.574,42.953L20.988,48.902L20.535,49.238C20.214,49.476 20.124,49.921 20.332,50.265L22.203,53.378C17.714,56.597 14.687,61.371 14.097,66.218L14.093,66.222C13.789,68.75 14.132,71.316 15.089,73.679C6.953,74.789 6.249,75.949 6.249,76.953C6.226,77.254 6.32,77.55 6.507,77.785C6.542,78.05 6.714,78.273 6.957,78.382C7.05,78.422 16.378,82.437 19.121,84.289C24.703,88.058 36.762,88.363 50.785,88.363C64.808,88.363 76.867,88.054 82.449,84.289C85.187,82.441 94.519,78.425 94.613,78.382L94.605,78.382C94.847,78.273 95.019,78.05 95.054,77.785C95.241,77.55 95.335,77.254 95.312,76.953C95.312,75.839 94.128,74.664 85.73,73.582L85.73,73.582ZM93.625,76.965C92.769,77.617 89.449,78.352 83.941,78.98C84.632,77.773 85.148,76.477 85.472,75.125C91.464,75.894 93.164,76.652 93.624,76.961L93.625,76.965ZM39.383,45.067C40.457,46.989 41.922,48.665 43.679,49.989C40.375,49.457 37.027,49.231 33.675,49.305C33.679,49.262 33.679,49.215 33.675,49.168C33.57,48.668 33.437,48.168 33.285,47.68L32.371,44.789L37.929,42.414L39.383,45.067ZM30.152,36.45C30.07,36.254 29.906,36.098 29.707,36.024C29.507,35.95 29.285,35.961 29.09,36.055C29.062,36.067 29.035,36.086 29.007,36.106C28.367,36.379 27.629,36.286 27.078,35.856C26.523,35.43 26.25,34.735 26.355,34.047C26.464,33.356 26.937,32.778 27.59,32.539C28.246,32.297 28.98,32.43 29.508,32.887C29.82,33.161 30.265,33.231 30.648,33.067C31.027,32.903 31.285,32.536 31.304,32.121C31.34,31.426 31.746,30.809 32.371,30.5C32.992,30.192 33.73,30.246 34.304,30.637C34.875,31.028 35.191,31.7 35.129,32.391C35.07,33.082 34.636,33.688 34.004,33.969C33.98,33.973 33.902,34 33.882,34.008C33.683,34.082 33.519,34.235 33.433,34.43C33.347,34.629 33.347,34.852 33.433,35.047L36.175,41.461L32.894,42.864L30.152,36.45ZM17.382,41.422C17.257,41.25 17.062,41.137 16.851,41.114C16.636,41.086 16.421,41.149 16.257,41.289C16.241,41.305 16.191,41.352 16.175,41.368C15.23,42.071 13.905,41.957 13.097,41.102C12.284,40.247 12.237,38.918 12.991,38.012C13.695,37.172 14.882,36.93 15.859,37.426C16.241,37.629 16.706,37.594 17.054,37.332C17.405,37.075 17.573,36.641 17.491,36.215C17.3,35.137 17.878,34.071 18.882,33.641C19.968,33.188 21.218,33.61 21.8,34.625C22.386,35.645 22.124,36.938 21.191,37.649C21.171,37.661 21.089,37.707 21.07,37.723L21.07,37.719C20.89,37.836 20.769,38.024 20.734,38.235C20.695,38.446 20.745,38.661 20.874,38.832L25.734,45.383L22.241,47.973L17.382,41.422ZM27.8,45.793L30.214,48.458L30.214,48.461C30.956,49.27 31.777,50.008 32.659,50.665C32.687,50.684 32.714,50.707 32.741,50.723C34.843,52.258 37.222,53.368 39.745,53.993C42.124,54.602 44.222,56.008 45.687,57.981C47.218,59.907 47.784,62.422 47.234,64.821C46.452,68.102 43.687,71.153 39.644,73.184L39.648,73.184C35.757,75.176 30.995,74.063 28.39,70.555C26.968,68.559 26.276,66.129 26.429,63.68C26.675,59.997 25.788,56.325 23.89,53.157L22.034,50.071L27.8,45.793ZM15.644,66.41C16.179,62.039 18.914,57.711 22.98,54.746C24.417,57.461 25.074,60.52 24.871,63.582C24.695,66.387 25.488,69.172 27.117,71.465C29.077,74.16 32.222,75.742 35.554,75.715C37.218,75.715 38.859,75.324 40.347,74.578C44.804,72.34 47.867,68.914 48.753,65.18C49.417,62.336 48.753,59.344 46.945,57.051C45.265,54.789 42.859,53.176 40.132,52.481C38.656,52.106 37.23,51.559 35.882,50.852C51.296,51.176 76.558,60.125 81.827,66.301C86.741,72.055 82.819,78.028 81.964,79.192C74.636,79.926 64.089,80.469 50.78,80.469C38.202,80.469 28.092,79.985 20.831,79.309C19.89,78.454 14.784,73.438 15.643,66.411L15.644,66.41ZM15.761,75.164L15.765,75.168C16.488,76.571 17.378,77.879 18.417,79.067C12.433,78.418 8.835,77.645 7.937,76.961C8.391,76.656 10.035,75.922 15.765,75.168L15.761,75.164ZM81.566,82.989C76.351,86.508 64.539,86.797 50.777,86.797C37.015,86.797 25.203,86.512 19.988,82.989L19.992,82.992C18.289,81.946 16.519,81.004 14.699,80.176C16.133,80.379 17.805,80.578 19.769,80.77C28.058,81.582 39.07,82.031 50.781,82.031C62.492,82.031 73.504,81.582 81.793,80.77C83.758,80.578 85.426,80.379 86.864,80.176C85.043,81.004 83.274,81.946 81.571,82.992L81.566,82.989Z" style="fill-rule:nonzero;"/>
                <path d="M62.027,48.41C62.043,48.828 62.39,49.164 62.808,49.164L62.84,49.164C63.269,49.148 63.605,48.785 63.59,48.355C63.558,46.594 63.925,44.848 64.664,43.25C65.445,41.64 65.769,39.848 65.593,38.07C65.328,36.031 63.886,34.18 62.496,32.387C61.054,30.531 59.562,28.613 59.406,26.558C58.988,21.164 63.601,17.211 63.648,17.172C63.972,16.894 64.011,16.406 63.734,16.078C63.461,15.75 62.972,15.703 62.644,15.976C62.429,16.156 57.371,20.469 57.847,26.679C58.043,29.199 59.679,31.308 61.261,33.343C62.586,35.047 63.832,36.652 64.043,38.269C64.179,39.789 63.894,41.312 63.211,42.675C62.39,44.476 61.988,46.433 62.027,48.41L62.027,48.41Z" style="fill-rule:nonzero;"/>
                <path d="M77.059,53.879C77.075,54.297 77.418,54.633 77.84,54.633L77.868,54.633C78.297,54.617 78.637,54.254 78.622,53.824C78.598,52.59 78.86,51.367 79.379,50.246C79.954,49.055 80.188,47.731 80.059,46.414C79.86,44.891 78.809,43.535 77.79,42.227C76.774,40.918 75.723,39.567 75.614,38.16C75.325,34.403 78.551,31.633 78.583,31.606L78.583,31.602C78.915,31.324 78.958,30.832 78.68,30.504C78.403,30.172 77.911,30.129 77.579,30.406C77.418,30.539 73.704,33.707 74.055,38.281C74.2,40.156 75.395,41.695 76.555,43.188C77.485,44.383 78.364,45.516 78.508,46.617C78.602,47.672 78.403,48.731 77.922,49.672C77.321,50.992 77.028,52.43 77.059,53.879L77.059,53.879Z" style="fill-rule:nonzero;"/>
                <path d="M47.918,42.941C47.934,43.359 48.277,43.695 48.699,43.695L48.727,43.695C48.934,43.687 49.129,43.597 49.27,43.445C49.414,43.293 49.488,43.093 49.481,42.886C49.457,41.652 49.719,40.429 50.238,39.308C50.813,38.117 51.047,36.793 50.918,35.476C50.719,33.953 49.668,32.597 48.649,31.289C47.633,29.98 46.582,28.629 46.473,27.222C46.184,23.465 49.41,20.695 49.442,20.668L49.442,20.664C49.77,20.386 49.813,19.898 49.535,19.566C49.258,19.238 48.77,19.195 48.438,19.468C48.277,19.601 44.563,22.769 44.914,27.343C45.059,29.218 46.254,30.757 47.414,32.25C48.344,33.445 49.223,34.578 49.367,35.679C49.461,36.734 49.262,37.793 48.781,38.734C48.18,40.054 47.887,41.492 47.918,42.941L47.918,42.941Z" style="fill-rule:nonzero;"/>
            </g>
        </g>
    </g>
</svg>
