<?xml version="1.0" encoding="UTF-8" standalone="no"?>
<!DOCTYPE svg PUBLIC "-//W3C//DTD SVG 1.1//EN" "http://www.w3.org/Graphics/SVG/1.1/DTD/svg11.dtd">
<svg width="100%" height="100%" viewBox="0 0 59 59" version="1.1" xmlns="http://www.w3.org/2000/svg" xmlns:xlink="http://www.w3.org/1999/xlink" xml:space="preserve" xmlns:serif="http://www.serif.com/" style="fill-rule:evenodd;clip-rule:evenodd;stroke-linejoin:round;stroke-miterlimit:2;">
    <g transform="matrix(1,0,0,1,-68,0)">
        <g id="diceImage1" transform="matrix(0.492617,0,0,0.569846,68.3769,0.0386818)">
            <rect x="0" y="0" width="117.739" height="101.782" style="fill:none;"/>
            <g transform="matrix(2.02998,0,0,1.75486,140.936,246.293)">
                <g transform="matrix(1,0,0,1,-113.382,-161.578)">
                    <path d="M56.109,30.402C54.465,30.402 53.129,31.738 53.129,33.379L53.129,67.078C53.129,68.722 54.464,70.054 56.109,70.054L89.808,70.054C91.449,70.054 92.785,68.718 92.785,67.078L92.785,33.379C92.785,31.738 91.449,30.402 89.804,30.402L56.109,30.402ZM89.804,71.414L56.109,71.414C53.715,71.414 51.769,69.469 51.769,67.078L51.769,33.379C51.769,30.989 53.715,29.043 56.105,29.043L89.804,29.043C92.195,29.043 94.14,30.989 94.14,33.379L94.14,67.078C94.14,69.469 92.195,71.414 89.804,71.414Z"/>
                </g>
                <g transform="matrix(1,0,0,1,-113.382,-161.578)">
                    <path d="M59.465,36.574C58.598,36.574 57.895,37.277 57.895,38.144C57.895,39.008 58.598,39.715 59.465,39.715C60.328,39.715 61.035,39.008 61.035,38.144C61.035,37.281 60.332,36.574 59.469,36.574L59.465,36.574ZM59.465,41.07C57.852,41.07 56.535,39.758 56.535,38.14C56.535,36.527 57.848,35.215 59.465,35.215C61.082,35.215 62.391,36.527 62.391,38.14C62.391,39.754 61.078,41.07 59.465,41.07Z"/>
                </g>
                <g transform="matrix(1,0,0,1,-113.382,-161.578)">
                    <path d="M59.465,60.746C58.598,60.746 57.895,61.449 57.895,62.316C57.895,63.183 58.598,63.887 59.465,63.887C60.328,63.887 61.035,63.183 61.035,62.316C61.035,61.453 60.332,60.746 59.469,60.746L59.465,60.746ZM59.465,65.242C57.852,65.242 56.535,63.93 56.535,62.312C56.535,60.699 57.848,59.387 59.465,59.387C61.082,59.387 62.391,60.699 62.391,62.312C62.391,63.926 61.078,65.242 59.465,65.242Z"/>
                </g>
                <g transform="matrix(1,0,0,1,-113.382,-161.578)">
                    <path d="M72.957,48.66C72.09,48.66 71.387,49.363 71.387,50.23C71.387,51.097 72.09,51.801 72.957,51.801C73.824,51.801 74.527,51.097 74.527,50.23C74.527,49.367 73.824,48.66 72.961,48.66L72.957,48.66ZM72.957,53.156C71.344,53.156 70.027,51.844 70.027,50.226C70.027,48.613 71.34,47.301 72.957,47.301C74.57,47.301 75.883,48.613 75.883,50.226C75.883,51.84 74.57,53.156 72.957,53.156Z"/>
                </g>
                <g transform="matrix(1,0,0,1,-113.382,-161.578)">
                    <path d="M86.445,36.574C85.582,36.574 84.875,37.277 84.875,38.144C84.875,39.008 85.578,39.715 86.445,39.715C87.312,39.715 88.015,39.008 88.015,38.144C88.015,37.281 87.312,36.574 86.445,36.574ZM86.445,41.07C84.832,41.07 83.519,39.758 83.519,38.14C83.519,36.527 84.832,35.215 86.445,35.215C88.058,35.215 89.375,36.527 89.375,38.14C89.375,39.754 88.062,41.07 86.445,41.07Z"/>
                </g>
                <g transform="matrix(1,0,0,1,-113.382,-161.578)">
                    <path d="M86.445,60.746C85.582,60.746 84.875,61.449 84.875,62.316C84.875,63.183 85.578,63.887 86.445,63.887C87.312,63.887 88.015,63.183 88.015,62.316C88.015,61.453 87.312,60.746 86.445,60.746ZM86.445,65.242C84.832,65.242 83.519,63.93 83.519,62.312C83.519,60.699 84.832,59.387 86.445,59.387C88.058,59.387 89.375,60.699 89.375,62.312C89.375,63.926 88.062,65.242 86.445,65.242Z"/>
                </g>
            </g>
        </g>
    </g>
</svg>
