<?xml version="1.0" encoding="UTF-8" standalone="no"?>
<!DOCTYPE svg PUBLIC "-//W3C//DTD SVG 1.1//EN" "http://www.w3.org/Graphics/SVG/1.1/DTD/svg11.dtd">
<svg width="100%" height="100%" viewBox="0 0 101 101" version="1.1" xmlns="http://www.w3.org/2000/svg" xmlns:xlink="http://www.w3.org/1999/xlink" xml:space="preserve" xmlns:serif="http://www.serif.com/" style="fill-rule:evenodd;clip-rule:evenodd;stroke-linejoin:round;stroke-miterlimit:2;">
    <g transform="matrix(1,0,0,1,-660,-96)">
        <g id="dice0" transform="matrix(0.849339,0,0,0.982493,660.209,96.6112)">
            <rect x="0" y="0" width="117.739" height="101.782" style="fill:none;"/>
            <clipPath id="_clip1">
                <rect x="0" y="0" width="117.739" height="101.782"/>
            </clipPath>
            <g clip-path="url(#_clip1)">
                <g transform="matrix(1.12958,0,0,0.866964,-100.224,-198.905)">
                    <path d="M192.96,241.19C192.96,234.698 188.28,229.427 182.516,229.427L99.171,229.427C93.407,229.427 88.727,234.698 88.727,241.19L88.727,335.064C88.727,341.556 93.407,346.827 99.171,346.827L182.516,346.827C188.28,346.827 192.96,341.556 192.96,335.064L192.96,241.19Z" style="fill:url(#_Linear2);"/>
                </g>
                <g transform="matrix(1.17739,0,0,1.05594,-777.321,-103.338)">
                    <path d="M748.434,130.404C748.434,126.998 745.565,124.233 742.031,124.233L713.767,124.233C710.234,124.233 707.365,126.998 707.365,130.404L707.365,131.477C707.365,134.883 710.234,137.649 713.767,137.649L742.031,137.649C745.565,137.649 748.434,134.883 748.434,131.477L748.434,130.404Z" style="fill:rgb(255,102,0);"/>
                </g>
                <g transform="matrix(1.17739,0,0,1.05594,-796.696,-71.3044)">
                    <path d="M748.434,130.404C748.434,126.998 745.565,124.233 742.031,124.233L713.767,124.233C710.234,124.233 707.365,126.998 707.365,130.404L707.365,131.477C707.365,134.883 710.234,137.649 713.767,137.649L742.031,137.649C745.565,137.649 748.434,134.883 748.434,131.477L748.434,130.404Z" style="fill:rgb(255,187,0);"/>
                </g>
                <g transform="matrix(0.705601,0,0,0.893441,-443.596,-66.2339)">
                    <path d="M748.434,130.404C748.434,126.998 744.383,124.233 739.394,124.233L716.404,124.233C711.415,124.233 707.365,126.998 707.365,130.404L707.365,131.477C707.365,134.883 711.415,137.649 716.404,137.649L739.394,137.649C744.383,137.649 748.434,134.883 748.434,131.477L748.434,130.404Z" style="fill:rgb(255,145,0);"/>
                </g>
                <g transform="matrix(0.4137,0,0,1.05594,-278.862,-71.3044)">
                    <path d="M748.434,130.404C748.434,126.998 740.269,124.233 730.213,124.233L725.586,124.233C715.53,124.233 707.365,126.998 707.365,130.404L707.365,131.477C707.365,134.883 715.53,137.649 725.586,137.649L730.213,137.649C740.269,137.649 748.434,134.883 748.434,131.477L748.434,130.404Z" style="fill:rgb(255,187,0);"/>
                </g>
            </g>
        </g>
    </g>
    <defs>
        <linearGradient id="_Linear2" x1="0" y1="0" x2="1" y2="0" gradientUnits="userSpaceOnUse" gradientTransform="matrix(104.233,0,0,117.4,88.7269,288.127)"><stop offset="0" style="stop-color:rgb(113,124,235);stop-opacity:1"/><stop offset="1" style="stop-color:rgb(88,171,236);stop-opacity:1"/></linearGradient>
    </defs>
</svg>
