<?xml version="1.0" encoding="UTF-8" standalone="no"?>
<!DOCTYPE svg PUBLIC "-//W3C//DTD SVG 1.1//EN" "http://www.w3.org/Graphics/SVG/1.1/DTD/svg11.dtd">
<svg width="100%" height="100%" viewBox="0 0 59 59" version="1.1" xmlns="http://www.w3.org/2000/svg" xmlns:xlink="http://www.w3.org/1999/xlink" xml:space="preserve" xmlns:serif="http://www.serif.com/" style="fill-rule:evenodd;clip-rule:evenodd;stroke-linejoin:round;stroke-miterlimit:2;">
    <g transform="matrix(1,0,0,1,-204,0)">
        <g id="playAgain" transform="matrix(0.492617,0,0,0.569846,204.488,0.0386818)">
            <rect x="0" y="0" width="117.739" height="101.782" style="fill:none;"/>
            <g transform="matrix(1.01499,0,0,0.87743,5.97163,7.0202)">
                <path d="M52.094,96.875C35.758,96.883 20.594,88.379 12.078,74.437C3.559,60.499 2.914,43.128 10.375,28.593C10.738,27.831 11.394,27.245 12.191,26.972C12.992,26.702 13.867,26.765 14.621,27.152C15.375,27.534 15.937,28.206 16.187,29.015C16.433,29.823 16.344,30.695 15.937,31.437C9.465,44.035 10.023,59.093 17.406,71.179C24.789,83.261 37.933,90.632 52.094,90.624C65.364,90.616 77.793,84.128 85.383,73.245C92.977,62.366 94.778,48.46 90.207,36.007C85.637,23.55 75.269,14.109 62.441,10.722C49.613,7.331 35.937,10.425 25.812,18.999C24.484,19.823 22.75,19.538 21.754,18.331C20.758,17.12 20.812,15.366 21.875,14.218C33.566,4.323 49.355,0.765 64.16,4.687C78.965,8.609 90.922,19.519 96.18,33.906C101.442,48.289 99.34,64.336 90.555,76.883C81.77,89.43 67.41,96.895 52.094,96.875L52.094,96.875Z" style="fill:white;fill-rule:nonzero;"/>
                <path d="M32.5,22.5C32.18,22.563 31.852,22.563 31.531,22.5L22.844,19.5C21.25,18.949 20.379,17.234 20.875,15.625C21.41,13.984 23.172,13.09 24.812,13.625L33.469,16.469C35.109,17.004 36.004,18.766 35.469,20.406C35.027,21.668 33.836,22.508 32.5,22.5L32.5,22.5Z" style="fill:white;fill-rule:nonzero;"/>
                <path d="M23.688,19.594L23.282,19.594C21.575,19.367 20.372,17.801 20.594,16.094L21.875,7.032C21.977,6.207 22.403,5.453 23.059,4.946C23.715,4.434 24.551,4.207 25.375,4.313C26.207,4.407 26.965,4.828 27.481,5.489C28,6.145 28.231,6.985 28.125,7.813L26.782,16.875C26.579,18.43 25.254,19.59 23.688,19.594L23.688,19.594Z" style="fill:white;fill-rule:nonzero;"/>
                <path d="M41.906,67.125C40.179,67.125 38.781,65.727 38.781,64L38.781,35.875C38.777,34.754 39.371,33.715 40.344,33.156C41.312,32.598 42.5,32.598 43.469,33.156L67.719,47.156C68.699,47.711 69.304,48.75 69.304,49.875C69.304,51 68.699,52.039 67.719,52.594L43.469,66.594C43.004,66.906 42.465,67.09 41.906,67.125L41.906,67.125ZM45.031,41.406L45.031,58.594L59.906,50L45.031,41.406Z" style="fill:white;fill-rule:nonzero;"/>
            </g>
        </g>
    </g>
</svg>
