<?xml version="1.0" encoding="UTF-8" standalone="no"?>
<!DOCTYPE svg PUBLIC "-//W3C//DTD SVG 1.1//EN" "http://www.w3.org/Graphics/SVG/1.1/DTD/svg11.dtd">
<svg width="100%" height="100%" viewBox="0 0 59 49" version="1.1" xmlns="http://www.w3.org/2000/svg" xmlns:xlink="http://www.w3.org/1999/xlink" xml:space="preserve" xmlns:serif="http://www.serif.com/" style="fill-rule:evenodd;clip-rule:evenodd;stroke-linejoin:round;stroke-miterlimit:2;">
    <g transform="matrix(1,0,0,1,-136,0)">
        <g id="smallDices" transform="matrix(0.492945,0,0,0.471837,136.413,0)">
            <rect x="0" y="0" width="117.739" height="101.782" style="fill:none;"/>
            <g transform="matrix(1.05146,0,0,1.0985,6.30387,-6.15082)">
                <path d="M8.578,38.242C6.652,38.242 5,39.883 5,41.816L5,83.421C5,85.355 6.652,86.995 8.578,86.995L51.703,86.995C53.629,86.995 55.281,85.351 55.281,83.421L55.281,75.601L55.281,75.605C55.293,74.8 54.98,74.027 54.418,73.456C53.855,72.882 53.086,72.562 52.281,72.562C51.477,72.562 50.707,72.882 50.145,73.456C49.582,74.027 49.27,74.8 49.281,75.605L49.281,80.999L11,80.999L11,44.241L38.754,44.241C39.559,44.253 40.332,43.941 40.907,43.378C41.477,42.812 41.797,42.042 41.797,41.241C41.797,40.437 41.477,39.667 40.907,39.105C40.332,38.542 39.559,38.23 38.754,38.241L8.578,38.242Z" style="fill:rgb(255,249,249);fill-rule:nonzero;"/>
                <path d="M19.793,48.98C17.914,48.98 16.398,50.5 16.398,52.363C16.398,54.226 17.91,55.746 19.793,55.746C21.672,55.746 23.211,54.226 23.211,52.363C23.211,50.5 21.672,48.98 19.793,48.98Z" style="fill:rgb(255,249,249);fill-rule:nonzero;"/>
                <path d="M30.141,59.254C28.262,59.254 26.746,60.75 26.746,62.613C26.746,64.477 28.258,65.996 30.141,65.996C32.02,65.996 33.536,64.477 33.536,62.613C33.536,60.75 32.024,59.254 30.141,59.254Z" style="fill:rgb(255,249,249);fill-rule:nonzero;"/>
                <path d="M19.793,69.5C17.914,69.5 16.398,71.019 16.398,72.883C16.398,74.746 17.91,76.242 19.793,76.242C21.672,76.242 23.211,74.746 23.211,72.883C23.211,71.02 21.672,69.5 19.793,69.5Z" style="fill:rgb(255,249,249);fill-rule:nonzero;"/>
                <path d="M40.488,69.5C38.609,69.5 37.094,71.019 37.094,72.883C37.094,74.746 38.605,76.242 40.488,76.242C42.367,76.242 43.883,74.746 43.883,72.883C43.883,71.02 42.371,69.5 40.488,69.5Z" style="fill:rgb(255,249,249);fill-rule:nonzero;"/>
                <path d="M68.773,77.211C70.445,78.172 72.695,77.57 73.664,75.902L94.523,39.871C95.491,38.2 94.886,35.953 93.214,34.993L55.866,13.485C54.194,12.524 51.94,13.121 50.975,14.793L30.116,50.824C29.148,52.496 29.753,54.742 31.425,55.703L68.773,77.211ZM69.679,70.809L36.531,51.719L54.961,19.883L88.109,38.973L69.679,70.809Z" style="fill:rgb(255,249,249);fill-rule:nonzero;"/>
                <path d="M76.18,38.238C75.09,38.312 74.067,38.91 73.485,39.918C72.551,41.531 73.11,43.613 74.735,44.551C76.364,45.488 78.446,44.941 79.379,43.328C80.313,41.714 79.731,39.632 78.102,38.695C77.493,38.343 76.829,38.195 76.176,38.238L76.18,38.238Z" style="fill:rgb(255,249,249);fill-rule:nonzero;"/>
                <path d="M62.078,41.984C60.988,42.058 59.965,42.632 59.383,43.64C58.449,45.254 59.008,47.336 60.633,48.273C62.262,49.21 64.344,48.664 65.277,47.05C66.211,45.437 65.629,43.355 64,42.417C63.391,42.066 62.726,41.941 62.074,41.984L62.078,41.984Z" style="fill:rgb(255,249,249);fill-rule:nonzero;"/>
                <path d="M47.973,45.703C46.883,45.777 45.86,46.351 45.278,47.359C44.344,48.973 44.903,51.055 46.528,51.992C48.157,52.93 50.239,52.383 51.172,50.769C52.106,49.156 51.524,47.074 49.895,46.137C49.286,45.785 48.622,45.66 47.969,45.703L47.973,45.703Z" style="fill:rgb(255,249,249);fill-rule:nonzero;"/>
            </g>
        </g>
    </g>
</svg>
